<?xml version="1.0" encoding="UTF-8"?>
<svg version="1.1" xmlns="http://www.w3.org/2000/svg" width="500" height="499">
<path d="M0 0 C1.21300781 0.18304688 2.42601562 0.36609375 3.67578125 0.5546875 C21.05019814 3.63081377 37.59157602 9.45954361 53 18 C54.20034042 18.64486718 55.40085952 19.28940188 56.6015625 19.93359375 C68.63803377 26.50059963 80.99078282 34.59041335 91 44 C91 44.66 91 45.32 91 46 C91.66 46 92.32 46 93 46 C93 46.66 93 47.32 93 48 C93.81791016 48.31324219 93.81791016 48.31324219 94.65234375 48.6328125 C97.87169866 50.50764481 100.1146455 53.11992489 102.5625 55.875 C103.04396484 56.40480469 103.52542969 56.93460938 104.02148438 57.48046875 C111 65.21731001 111 65.21731001 111 68 C111.66 68 112.32 68 113 68 C114.67559397 70.26024366 116.22704013 72.51459474 117.75 74.875 C118.42760376 75.91491089 118.42760376 75.91491089 119.11889648 76.97583008 C120.0184253 78.36213995 120.91425342 79.75085892 121.80615234 81.14208984 C122.74933618 82.60990763 123.7095387 84.06678896 124.67578125 85.51953125 C133.95414113 100.02513614 139.60824139 116.46588339 144 133 C144.31710937 134.14726562 144.63421875 135.29453125 144.9609375 136.4765625 C155.77629975 178.77426636 147.57906498 227.68292045 125.70117188 265.22900391 C120.79302023 273.30511261 115.59278877 280.98242981 109.265625 288.01953125 C107.7709186 289.88603998 107.7709186 289.88603998 108.26879883 291.93261719 C109.4763032 295.34668966 112.05053955 297.78363673 114.4375 300.4375 C117.74205188 304.11439576 120.4955596 307.18038555 122 312 C122.66 312 123.32 312 124 312 C125.70170705 314.00667247 127.29556503 316.02488431 128.875 318.125 C133.38892531 324.00834395 138.07719766 329.6929616 142.93896484 335.29150391 C151 344.57832211 151 344.57832211 151 347 C151.66 347 152.32 347 153 347 C154.7265625 348.8984375 154.7265625 348.8984375 156.625 351.375 C157.25664062 352.18710937 157.88828125 352.99921875 158.5390625 353.8359375 C160 356 160 356 160 358 C160.66 358 161.32 358 162 358 C163.37482452 359.52952876 164.67665897 361.12522906 165.9375 362.75 C166.62714844 363.63171875 167.31679688 364.5134375 168.02734375 365.421875 C168.67832031 366.27265625 169.32929688 367.1234375 170 368 C170.57878906 368.72703125 171.15757812 369.4540625 171.75390625 370.203125 C173 372 173 372 173 374 C173.66 374 174.32 374 175 374 C177.05859375 376.34375 177.05859375 376.34375 179.4375 379.5 C180.61119141 381.03140625 180.61119141 381.03140625 181.80859375 382.59375 C186.16986846 388.96012216 187.56466713 395.23445637 187.5 402.875 C187.49427979 403.66438965 187.48855957 404.4537793 187.48266602 405.26708984 C187.16492457 415.66804045 182.37809746 422.88599551 175 430 C166.29541464 437.00151431 156.88012777 437.89719985 146 437 C138.84182687 435.79794672 133.14158249 432.05462126 128 427 C126.74609375 424.77734375 126.74609375 424.77734375 126 423 C125.34 423 124.68 423 124 423 C122.51857071 421.24003752 121.11756184 419.41233116 119.75 417.5625 C115.65999683 412.10738495 111.419538 406.80654259 107.0625 401.5625 C102.55659745 396.12060951 98.07681398 390.66157925 93.6875 385.125 C93.22545166 384.5482251 92.76340332 383.9714502 92.28735352 383.37719727 C90.3482771 380.91559079 89.00017092 379.00051277 88 376 C87.34 376 86.68 376 86 376 C84.37109375 374.19921875 84.37109375 374.19921875 82.4375 371.6875 C79.43573298 367.83978046 76.40767683 364.02321724 73.3125 360.25 C72.56742187 359.33863281 71.82234375 358.42726563 71.0546875 357.48828125 C69.37151299 355.44991212 67.66249566 353.4402492 65.9375 351.4375 C64 349 64 349 64 347 C63.34 347 62.68 347 62 347 C60.1631982 344.80126681 58.52626829 342.48799344 56.8515625 340.1640625 C54.4115667 337.29491616 54.4115667 337.29491616 51 336 C47.9431026 337.07858309 47.9431026 337.07858309 44.625 338.9375 C4.81079253 358.8098705 -44.18704279 359.30322392 -85.9375 345.75 C-111.32728118 337.09022335 -134.26098999 323.10871222 -153.52001953 304.43310547 C-154.8960628 303.10064523 -156.28918089 301.78588058 -157.68359375 300.47265625 C-164.22055891 294.18044486 -169.7043134 287.33710271 -175 280 C-176.051875 278.54787109 -176.051875 278.54787109 -177.125 277.06640625 C-182.25782496 269.67794532 -186.28741572 261.90680632 -190.13769531 253.80126953 C-190.85957431 252.29333542 -191.6100244 250.79912339 -192.3671875 249.30859375 C-197.09468106 239.68366404 -200.1178657 229.29788355 -203 219 C-203.34756348 217.76636719 -203.34756348 217.76636719 -203.70214844 216.5078125 C-207.22837327 203.25051111 -207.38628343 189.87712501 -207.4375 176.25 C-207.44385468 175.38321625 -207.45020935 174.5164325 -207.45675659 173.62338257 C-207.52898908 157.76394201 -205.76322554 142.5411833 -201.1875 127.3125 C-200.92743164 126.43223145 -200.66736328 125.55196289 -200.39941406 124.64501953 C-192.89551524 99.80249802 -180.35545174 78.96222167 -164 59 C-163.30648437 58.08347656 -162.61296875 57.16695312 -161.8984375 56.22265625 C-161.27195313 55.48917969 -160.64546875 54.75570312 -160 54 C-159.34 54 -158.68 54 -158 54 C-158 53.34 -158 52.68 -158 52 C-157.34 52 -156.68 52 -156 52 C-156 51.34 -156 50.68 -156 50 C-155.34 50 -154.68 50 -154 50 C-154 49.34 -154 48.68 -154 48 C-153.34 48 -152.68 48 -152 48 C-152 47.34 -152 46.68 -152 46 C-148.53160959 42.7705735 -144.73510481 39.91427845 -141 37 C-140.03964844 36.24847656 -139.07929688 35.49695313 -138.08984375 34.72265625 C-98.36204206 4.29853894 -49.50678032 -7.51729853 0 0 Z M-39.15673828 37.09228516 C-59.29074282 38.13194481 -78.49999202 44.10439729 -96 54 C-97.03898437 54.55300781 -98.07796875 55.10601562 -99.1484375 55.67578125 C-123.25951465 68.9337095 -143.91209011 90.80681457 -155 116 C-155.63615234 117.29357422 -155.63615234 117.29357422 -156.28515625 118.61328125 C-163.9811287 134.49946291 -168.05713108 152.39978018 -169 170 C-169.05285156 170.8971875 -169.10570312 171.794375 -169.16015625 172.71875 C-170.19494599 207.63165589 -157.25932895 240.58504771 -135 267 C-134.29230469 267.93070313 -133.58460938 268.86140625 -132.85546875 269.8203125 C-132.24316406 270.53960937 -131.63085938 271.25890625 -131 272 C-130.34 272 -129.68 272 -129 272 C-129 272.66 -129 273.32 -129 274 C-128.34 274 -127.68 274 -127 274 C-127 274.66 -127 275.32 -127 276 C-126.34 276 -125.68 276 -125 276 C-125 276.66 -125 277.32 -125 278 C-122.91218737 279.81405046 -120.81969512 281.51126999 -118.625 283.1875 C-117.98159668 283.68290283 -117.33819336 284.17830566 -116.67529297 284.6887207 C-114.78924153 286.13350106 -112.89514715 287.56718545 -111 289 C-110.1440625 289.66 -109.288125 290.32 -108.40625 291 C-88.42114426 305.78350288 -61.77779336 314.57436919 -37 315 C-35.69160156 315.03867187 -34.38320312 315.07734375 -33.03515625 315.1171875 C-0.00424818 315.81389752 31.15050866 305.74761805 57 285 C60.7265625 282.20507812 60.7265625 282.20507812 64.453125 279.41015625 C64.96359375 278.94480469 65.4740625 278.47945312 66 278 C66 277.34 66 276.68 66 276 C66.66 276 67.32 276 68 276 C68 275.34 68 274.68 68 274 C68.8986377 273.60518433 68.8986377 273.60518433 69.81542969 273.20239258 C72.11311376 271.93774192 73.30167382 270.77762618 74.953125 268.76171875 C75.48591064 268.11340088 76.01869629 267.46508301 76.56762695 266.79711914 C77.40040161 265.75285767 77.40040161 265.75285767 78.25 264.6875 C78.8277417 263.96618896 79.4054834 263.24487793 80.00073242 262.50170898 C103.78276398 232.35252001 113.1042009 195.1517697 108.98217773 157.22314453 C106.43828421 136.31870472 98.42776527 114.12917794 86 97 C85.34 97 84.68 97 84 97 C83.7628125 96.29488281 83.525625 95.58976562 83.28125 94.86328125 C81.77497827 91.49713132 79.84415483 89.03016827 77.5 86.1875 C76.30890625 84.72376953 76.30890625 84.72376953 75.09375 83.23046875 C74.4028125 82.49441406 73.711875 81.75835937 73 81 C72.34 81 71.68 81 71 81 C71 80.34 71 79.68 71 79 C68.57546894 76.41734735 65.73001118 74.25014215 63 72 C61.99324219 71.15695313 60.98648438 70.31390625 59.94921875 69.4453125 C43.74496003 56.13083315 26.1418646 47.09341981 5.96118164 41.54882812 C4.13596136 41.03804819 2.32311621 40.48360242 0.51171875 39.92578125 C-3.47175087 38.87563409 -7.34815217 38.3088878 -11.4375 37.875 C-12.22390869 37.7915332 -13.01031738 37.70806641 -13.82055664 37.62207031 C-22.29834376 36.78715609 -30.64763942 36.72818742 -39.15673828 37.09228516 Z " fill="#F8F8F7" transform="translate(267,43)"/>
<path d="M0 0 C2.59557706 2.26450856 4.45661367 4.91322734 6 8 C6.07065617 10.04055005 6.08421976 12.08334257 6.0625 14.125 C6.05347656 15.22070312 6.04445312 16.31640625 6.03515625 17.4453125 C6.01775391 18.70988281 6.01775391 18.70988281 6 20 C7.8871875 20.32871094 7.8871875 20.32871094 9.8125 20.6640625 C28.53285047 24.07177284 44.36205507 30.02150342 60.1875 40.75 C60.7652417 41.13905518 61.3429834 41.52811035 61.93823242 41.92895508 C63.33096012 42.89918178 64.67129366 43.94379464 66 45 C66 45.66 66 46.32 66 47 C66.556875 47.2371875 67.11375 47.474375 67.6875 47.71875 C86.37385105 58.07199855 97.59583344 84.38931659 103.2890625 103.8046875 C104.48022284 109.15836421 104.82091402 114.5289232 105 120 C105.95261719 119.96519531 106.90523437 119.93039063 107.88671875 119.89453125 C109.14097656 119.86746094 110.39523437 119.84039062 111.6875 119.8125 C112.92886719 119.77769531 114.17023438 119.74289063 115.44921875 119.70703125 C119.24756737 120.02042635 121.02150221 120.67741689 124 123 C126.41338775 126.9704121 127.36282999 129.74250685 126.375 134.25 C124.53108348 139.27886323 124.53108348 139.27886323 122 141 C118.43954823 142.18681726 115.56191663 142.09689832 111.8125 142.0625 C110.54019531 142.05347656 109.26789063 142.04445312 107.95703125 142.03515625 C106.49330078 142.01775391 106.49330078 142.01775391 105 142 C104.98582031 142.66902344 104.97164062 143.33804688 104.95703125 144.02734375 C103.54995536 172.35900684 87.20693139 197.03861535 66.9375 215.8125 C54.20722664 226.85730103 39.59231006 234.45686612 23.375 239.0625 C22.66601562 239.26633301 21.95703125 239.47016602 21.2265625 239.68017578 C16.06011333 241.02884238 11.33374306 241.16242243 6 241 C6.03480469 241.79664063 6.06960937 242.59328125 6.10546875 243.4140625 C6.29735218 250.92492835 6.10725367 255.72012113 0.75 261.375 C-2.80547501 263.47596251 -4.92664198 263.50916975 -9 263 C-12.79383397 261.53420051 -13.81584767 260.33020417 -15.8125 256.75 C-17.03247981 252.89743217 -17.15126998 250.00865436 -17 246 C-17.29914785 244.65858304 -17.62547694 243.32235448 -18 242 C-18.98097656 241.84144531 -19.96195312 241.68289063 -20.97265625 241.51953125 C-36.07241341 238.9607621 -49.48833532 234.22426448 -63 227 C-63 226.34 -63 225.68 -63 225 C-63.53625 224.92394531 -64.0725 224.84789062 -64.625 224.76953125 C-67.89244115 223.71083732 -70.32899941 221.7781429 -73 219.6875 C-73.56887939 219.24237061 -74.13775879 218.79724121 -74.72387695 218.33862305 C-96.34373894 201.07444379 -112.43419732 175.82264456 -116 148 C-116.02853455 146.00020357 -116.03452723 143.99970195 -116 142 C-116.86882812 142.03480469 -117.73765625 142.06960937 -118.6328125 142.10546875 C-130.56353839 142.3857207 -130.56353839 142.3857207 -135 139 C-137.75554108 135.88890523 -137.99193807 134.25395072 -138.125 130.0625 C-137.35853522 125.98242991 -135.71749416 123.59211731 -132.453125 121.0546875 C-127.28168892 118.83129937 -121.50418855 119.58775842 -116 120 C-115.97873047 119.12214844 -115.97873047 119.12214844 -115.95703125 118.2265625 C-114.41292043 90.43256773 -99.05297925 65.95051704 -79.16015625 47.34375 C-62.76465343 33.08296365 -39.31575045 20 -17 20 C-17.05220703 18.91332031 -17.05220703 18.91332031 -17.10546875 17.8046875 C-17.26456153 12.12280263 -17.38075548 7.82965069 -14 3 C-9.52200557 -1.05818245 -5.8196865 -1.50509133 0 0 Z M-68.63671875 67.59765625 C-76.65767709 75.22347232 -76.65767709 75.22347232 -81 85 C-81.66 85 -82.32 85 -83 85 C-91.13227067 101.82288887 -91.13227067 101.82288887 -94 120 C-93.39003174 120.01458252 -92.78006348 120.02916504 -92.15161133 120.04418945 C-89.37128936 120.11894775 -86.59213176 120.21551482 -83.8125 120.3125 C-82.85279297 120.33505859 -81.89308594 120.35761719 -80.90429688 120.38085938 C-71.93828053 120.72212643 -71.93828053 120.72212643 -68 124 C-65.1109612 128.46487815 -66.19583624 133.01201127 -67 138 C-67.66 138 -68.32 138 -69 138 C-69 138.66 -69 139.32 -69 140 C-72.02769315 140.86111516 -74.84266637 141.18230893 -77.984375 141.31640625 C-78.91894531 141.35830078 -79.85351562 141.40019531 -80.81640625 141.44335938 C-81.78449219 141.48267578 -82.75257813 141.52199219 -83.75 141.5625 C-84.73355469 141.60568359 -85.71710938 141.64886719 -86.73046875 141.69335938 C-89.15351275 141.79922052 -91.5766554 141.90130171 -94 142 C-92.53875344 157.83311416 -86.4783237 174.73744162 -76 187 C-75.34 187 -74.68 187 -74 187 C-73.7421875 187.58265625 -73.484375 188.1653125 -73.21875 188.765625 C-71.90165983 191.1802903 -70.44911616 192.81740177 -68.5 194.75 C-67.58734375 195.67039062 -67.58734375 195.67039062 -66.65625 196.609375 C-65.10515723 198.21434088 -65.10515723 198.21434088 -63 198 C-63 198.66 -63 199.32 -63 200 C-51.89716948 209.7656283 -35.70490839 217.12856445 -21 219 C-18.09010956 218.74163055 -18.09010956 218.74163055 -16 218 C-16.04640625 216.865625 -16.0928125 215.73125 -16.140625 214.5625 C-16.57254464 199.45535714 -16.57254464 199.45535714 -12 193 C-8.55211624 191.27605812 -4.77720283 191.63641898 -1 192 C2.07382109 193.41868666 2.75858914 194.42275189 4.05859375 197.53125 C5.22874751 201.84285388 5.45476368 205.92757618 5.625 210.375 C5.66367188 211.20644531 5.70234375 212.03789062 5.7421875 212.89453125 C5.83574246 214.92935156 5.91892713 216.96464416 6 219 C27.27305083 218.52244172 46.66593558 206.12191025 61.0703125 191.16796875 C72.58383549 178.23273543 83.28814559 159.85554819 83 142 C82.38479492 141.98018066 81.76958984 141.96036133 81.13574219 141.93994141 C78.34007458 141.84450273 75.5451349 141.73490045 72.75 141.625 C71.78191406 141.5940625 70.81382812 141.563125 69.81640625 141.53125 C68.88183594 141.49257812 67.94726562 141.45390625 66.984375 141.4140625 C65.69611816 141.36693115 65.69611816 141.36693115 64.38183594 141.31884766 C61.81372909 140.9750646 60.18107017 140.3872552 58 139 C55.88479622 135.7907253 54.98366521 133.80040465 55.0625 129.9375 C56.14143072 126.55685041 57.57606399 124.57084122 60 122 C62.40541929 120.79729036 64.10366591 120.79683337 66.7890625 120.68359375 C67.73007812 120.64169922 68.67109375 120.59980469 69.640625 120.55664062 C70.62546875 120.51732422 71.6103125 120.47800781 72.625 120.4375 C73.61757813 120.39431641 74.61015625 120.35113281 75.6328125 120.30664062 C78.08839838 120.20038931 80.54408703 120.09835036 83 120 C81.2663829 101.42110196 73.65501489 84.68227862 61 71 C60.32582031 70.23429687 59.65164063 69.46859375 58.95703125 68.6796875 C46.47990107 55.24277807 28.95623252 46.37790513 11 43 C9.33385683 42.95823039 7.66581247 42.94664658 6 43 C5.9906543 43.57443848 5.98130859 44.14887695 5.97167969 44.74072266 C5.91764969 47.36965304 5.83407106 49.99686567 5.75 52.625 C5.73582031 53.52863281 5.72164063 54.43226563 5.70703125 55.36328125 C5.49519067 61.16771303 4.82507405 64.55637308 1 69 C-1.91354542 70.7634617 -3.59799234 71.00837516 -7 70.9375 C-10.77036448 69.7592611 -12.45989992 67.97554581 -15 65 C-16.88370884 61.23258232 -16.03017661 56.38064078 -15.9609375 52.20898438 C-15.92645032 48.87234979 -15.93666743 46.18999771 -17 43 C-36.47983795 43 -54.90990933 54.81442456 -68.63671875 67.59765625 Z " fill="#F4F4F2" transform="translate(243,88)"/>
<path d="M0 0 C9.45571945 6.18669851 14.59044082 12.99417562 17 24 C17.62765169 33.10094956 15.5722018 41.05652121 9.7265625 48.18359375 C2.9055908 55.35950289 -4.57334963 59.04272718 -14.5 59.375 C-24.48562415 59.04075317 -31.75496036 55.30437267 -38.7265625 48.25390625 C-44.2782188 41.67669768 -46.44326554 33.4179359 -46 24.875 C-44.83222351 16.99250868 -41.06158928 10.15235089 -35 5 C-34.278125 4.319375 -33.55625 3.63875 -32.8125 2.9375 C-22.85133908 -3.92463308 -10.99247932 -5.56457656 0 0 Z " fill="#F4F3F3" transform="translate(252,191)"/>
<path d="M0 0 C1.44439453 0.10828125 1.44439453 0.10828125 2.91796875 0.21875 C17.60519827 1.21845101 32.28558094 1.09825737 47 1 C35.98734305 6.72440089 20.11904749 4.54862623 8.0625 3.125 C7.3701123 3.04660889 6.67772461 2.96821777 5.96435547 2.88745117 C4.29779206 2.6674783 2.64563086 2.3431045 1 2 C0.67 1.34 0.34 0.68 0 0 Z " fill="#B7B6B6" transform="translate(212,356)"/>
<path d="M0 0 C0 0.33 0 0.66 0 1 C-1.98 1 -3.96 1 -6 1 C-6.33 1.66 -6.66 2.32 -7 3 C-8.33333333 3.66666667 -9.66666667 4.33333333 -11 5 C-13.6299697 6.89978155 -13.97760355 7.86271489 -14.51171875 11.13671875 C-14.56972656 12.30847656 -14.62773437 13.48023437 -14.6875 14.6875 C-14.75324219 15.86699219 -14.81898438 17.04648438 -14.88671875 18.26171875 C-14.92410156 19.16535156 -14.96148437 20.06898437 -15 21 C-16.32 20.67 -17.64 20.34 -19 20 C-18.34 20 -17.68 20 -17 20 C-17.03480469 19.27554688 -17.06960937 18.55109375 -17.10546875 17.8046875 C-17.26456153 12.12280263 -17.38075548 7.82965069 -14 3 C-9.38639585 -1.18107876 -5.9798835 -1.01545191 0 0 Z " fill="#9B9A99" transform="translate(243,88)"/>
<path d="M0 0 C0.33 0 0.66 0 1 0 C0.99476318 1.1960083 0.98952637 2.3920166 0.98413086 3.62426758 C0.96604288 8.05785373 0.95455405 12.49143661 0.94506836 16.92504883 C0.94003685 18.84465076 0.93321102 20.76424886 0.92456055 22.68383789 C0.91244331 25.44157864 0.90675989 28.19926876 0.90234375 30.95703125 C0.89718246 31.81649857 0.89202118 32.67596588 0.88670349 33.56147766 C0.88662796 34.36208115 0.88655243 35.16268463 0.88647461 35.98754883 C0.884254 36.6914827 0.88203339 37.39541656 0.87974548 38.12068176 C0.93440466 40.22821656 0.93440466 40.22821656 2 43 C1.87890625 45.26171875 1.87890625 45.26171875 1.5625 47.6875 C1.46066406 48.49574219 1.35882813 49.30398437 1.25390625 50.13671875 C1.17011719 50.75160156 1.08632813 51.36648437 1 52 C0.67 52 0.34 52 0 52 C-1.21500104 47.25039564 -1.1443713 42.62013042 -1.1328125 37.75390625 C-1.13376923 36.86517319 -1.13472595 35.97644012 -1.13571167 35.06077576 C-1.1363906 33.18561736 -1.13455635 31.31045658 -1.13037109 29.43530273 C-1.12502516 26.57595497 -1.13032256 23.71676473 -1.13671875 20.85742188 C-1.13605779 19.03124966 -1.13477627 17.20507753 -1.1328125 15.37890625 C-1.13483673 14.52873428 -1.13686096 13.67856232 -1.13894653 12.80262756 C-1.12177648 8.42176779 -0.8786809 4.31356409 0 0 Z " fill="#D1CFCF" transform="translate(61,193)"/>
<path d="M0 0 C0 7.26 0 14.52 0 22 C0.66 22.33 1.32 22.66 2 23 C1.34 23.99 0.68 24.98 0 26 C-1.77669223 22.93843346 -2.24050818 20.75963785 -2.1953125 17.234375 C-2.18564453 15.90019531 -2.18564453 15.90019531 -2.17578125 14.5390625 C-2.15902344 13.61867187 -2.14226562 12.69828125 -2.125 11.75 C-2.11597656 10.81414062 -2.10695312 9.87828125 -2.09765625 8.9140625 C-2.07413636 6.60911343 -2.04126853 4.3046884 -2 2 C-4.64 2.33 -7.28 2.66 -10 3 C-6.41600853 0.61067235 -4.26804999 0 0 0 Z " fill="#989796" transform="translate(228,129)"/>
<path d="M0 0 C3.3956697 -0.08745946 6.79104773 -0.14054444 10.1875 -0.1875 C11.14720703 -0.21263672 12.10691406 -0.23777344 13.09570312 -0.26367188 C21.88777807 -0.35493909 21.88777807 -0.35493909 26 3 C22.53706055 4.15431315 21.51475606 3.72571886 18 3 C14.89998165 2.73254459 11.79517326 2.58711963 8.6875 2.4375 C7.85154297 2.39431641 7.01558594 2.35113281 6.15429688 2.30664062 C4.10303065 2.20114693 2.0515352 2.10012685 0 2 C0 1.34 0 0.68 0 0 Z " fill="#898385" transform="translate(149,208)"/>
<path d="M0 0 C0.33 0 0.66 0 1 0 C1 7.59 1 15.18 1 23 C-1.97 22.67 -4.94 22.34 -8 22 C-8 21.34 -8 20.68 -8 20 C-5.69 20 -3.38 20 -1 20 C-1.01160156 18.80761719 -1.02320313 17.61523438 -1.03515625 16.38671875 C-1.04453592 14.82031406 -1.05363593 13.25390769 -1.0625 11.6875 C-1.07506836 10.50897461 -1.07506836 10.50897461 -1.08789062 9.30664062 C-1.09111328 8.54931641 -1.09433594 7.79199219 -1.09765625 7.01171875 C-1.10289307 6.31522217 -1.10812988 5.61872559 -1.11352539 4.90112305 C-1 3 -1 3 0 0 Z " fill="#908F8E" transform="translate(227,286)"/>
<path d="M0 0 C0.33 0 0.66 0 1 0 C1 2.64 1 5.28 1 8 C-0.10859375 8.01417969 -1.2171875 8.02835938 -2.359375 8.04296875 C-3.82295784 8.08987846 -5.28649823 8.13812581 -6.75 8.1875 C-7.47960937 8.19330078 -8.20921875 8.19910156 -8.9609375 8.20507812 C-12.95028124 8.36827855 -14.61039694 8.58429608 -17.390625 11.55078125 C-17.92171875 12.35902344 -18.4528125 13.16726562 -19 14 C-19.66 14 -20.32 14 -21 14 C-19.4898214 10.15590902 -17.44335653 8.2456673 -14 6 C-10.44921875 5.609375 -10.44921875 5.609375 -6.6875 5.75 C-4.80611328 5.80414063 -4.80611328 5.80414063 -2.88671875 5.859375 C-1.93410156 5.90578125 -0.98148438 5.9521875 0 6 C0 4.02 0 2.04 0 0 Z " fill="#93908D" transform="translate(127,202)"/>
<path d="M0 0 C0.99 0 1.98 0 3 0 C2.89045592 3.62564187 2.7597504 7.25021431 2.625 10.875 C2.5940625 11.90753906 2.563125 12.94007813 2.53125 14.00390625 C2.49257812 14.99003906 2.45390625 15.97617188 2.4140625 16.9921875 C2.3826416 17.90339355 2.3512207 18.81459961 2.31884766 19.75341797 C2 22 2 22 0 24 C0 16.08 0 8.16 0 0 Z " fill="#AAAAA9" transform="translate(247,129)"/>
<path d="M0 0 C2 2 2 2 2.1953125 4.8203125 C2.13020833 7.88020833 2.06510417 10.94010417 2 14 C7.94 14.99 7.94 14.99 14 16 C14 16.33 14 16.66 14 17 C12.60427948 17.02736707 11.20839779 17.04655989 9.8125 17.0625 C9.03519531 17.07410156 8.25789062 17.08570312 7.45703125 17.09765625 C5 17 5 17 0 16 C0 10.72 0 5.44 0 0 Z " fill="#9A9997" transform="translate(247,94)"/>
<path d="M0 0 C-0.33 0.66 -0.66 1.32 -1 2 C-4.56045177 3.18681726 -7.43808337 3.09689832 -11.1875 3.0625 C-12.45980469 3.05347656 -13.73210937 3.04445312 -15.04296875 3.03515625 C-16.50669922 3.01775391 -16.50669922 3.01775391 -18 3 C-18 4.65 -18 6.3 -18 8 C-18.33 8 -18.66 8 -19 8 C-19.33 5.69 -19.66 3.38 -20 1 C-17.60429729 0.8312461 -15.20846637 0.66493164 -12.8125 0.5 C-12.13896484 0.45230469 -11.46542969 0.40460938 -10.77148438 0.35546875 C-7.17363248 0.10976179 -3.60627694 -0.05601984 0 0 Z " fill="#A9A8A8" transform="translate(366,227)"/>
<path d="M0 0 C0.66 0.33 1.32 0.66 2 1 C1.80859375 3.3203125 1.80859375 3.3203125 1 6 C-1.21484375 7.6171875 -1.21484375 7.6171875 -3.9375 8.875 C-4.83339844 9.30554688 -5.72929687 9.73609375 -6.65234375 10.1796875 C-7.42707031 10.45039063 -8.20179688 10.72109375 -9 11 C-9.66 10.67 -10.32 10.34 -11 10 C-9.54712339 8.66072279 -8.08752741 7.32873153 -6.625 6 C-5.81289063 5.2575 -5.00078125 4.515 -4.1640625 3.75 C-2 2 -2 2 0 2 C0 1.34 0 0.68 0 0 Z " fill="#C8C8C6" transform="translate(333,319)"/>
<path d="M0 0 C0.144375 0.61875 0.28875 1.2375 0.4375 1.875 C0.93152225 4.03258322 0.93152225 4.03258322 2 6 C1 7 0 8 -1 9 C-1.515625 9.556875 -2.03125 10.11375 -2.5625 10.6875 C-4 12 -4 12 -6 12 C-4.68139111 7.38486888 -2.78644563 3.90102388 0 0 Z " fill="#D6D5D4" transform="translate(86,125)"/>
<path d="M0 0 C1.64630328 0.14042877 3.29204179 0.28749329 4.9375 0.4375 C6.31228516 0.55931641 6.31228516 0.55931641 7.71484375 0.68359375 C10 1 10 1 11 2 C13.01594582 2.23427778 15.038474 2.41336124 17.0625 2.5625 C18.16722656 2.64628906 19.27195312 2.73007812 20.41015625 2.81640625 C21.26480469 2.87699219 22.11945313 2.93757813 23 3 C23 3.33 23 3.66 23 4 C14.64259099 4.32098157 7.77729519 4.21819111 0 1 C0 0.67 0 0.34 0 0 Z " fill="#A09F9E" transform="translate(404,476)"/>
<path d="M0 0 C0.33 0.66 0.66 1.32 1 2 C-2.85623679 6.82029598 -2.85623679 6.82029598 -6.11328125 7.33203125 C-8.07856214 7.3145776 -10.04166127 7.16596091 -12 7 C-8.35140239 3.95950199 -4.2555467 2.03481238 0 0 Z " fill="#B6B6B4" transform="translate(283,295)"/>
<path d="M0 0 C2.24940295 -0.08119503 4.49964871 -0.13927819 6.75 -0.1875 C8.00296875 -0.22230469 9.2559375 -0.25710937 10.546875 -0.29296875 C14.14109357 0.01197061 15.44725126 0.54394629 18 3 C14.71645198 4.64177401 11.34371004 3.26642648 7.875 2.5625 C6.74384766 2.34110352 6.74384766 2.34110352 5.58984375 2.11523438 C3.72538843 1.74942352 1.86253286 1.37547644 0 1 C0 0.67 0 0.34 0 0 Z " fill="#767675" transform="translate(348,208)"/>
<path d="M0 0 C0.77085937 0.02835937 1.54171875 0.05671875 2.3359375 0.0859375 C3.49996094 0.10527344 3.49996094 0.10527344 4.6875 0.125 C6.7109375 0.4609375 6.7109375 0.4609375 8.7109375 2.4609375 C3.7609375 3.1209375 -1.1890625 3.7809375 -6.2890625 4.4609375 C-2.2890625 0.4609375 -2.2890625 0.4609375 0 0 Z " fill="#939393" transform="translate(235.2890625,278.5390625)"/>
<path d="M0 0 C2.96052484 3.36423277 3.92289822 6.69159287 5 11 C3.68 11 2.36 11 1 11 C1 10.34 1 9.68 1 9 C0.34 8.67 -0.32 8.34 -1 8 C-0.7525 7.13375 -0.7525 7.13375 -0.5 6.25 C0.14462031 3.73335631 0.14462031 3.73335631 0 0 Z " fill="#BDBCBA" transform="translate(397,140)"/>
<path d="M0 0 C1.32 0.66 2.64 1.32 4 2 C2.54462432 2.83848804 1.08559627 3.67063934 -0.375 4.5 C-1.59316406 5.19609375 -1.59316406 5.19609375 -2.8359375 5.90625 C-5 7 -5 7 -7 7 C-6 4 -6 4 -4 1 C-2.68 1.33 -1.36 1.66 0 2 C0 1.34 0 0.68 0 0 Z " fill="#BCBCB9" transform="translate(194,138)"/>
<path d="M0 0 C10.55808656 1.92710706 10.55808656 1.92710706 15 4 C11.92677456 4.91058531 9.19902639 5.08886184 6 5 C5.67 4.01 5.34 3.02 5 2 C3.35 1.67 1.7 1.34 0 1 C0 0.67 0 0.34 0 0 Z " fill="#9E9D9C" transform="translate(263,111)"/>
<path d="M0 0 C-2.96178773 1.67110042 -5.37071192 2.32682752 -8.75 2.625 C-9.54921875 2.69976562 -10.3484375 2.77453125 -11.171875 2.8515625 C-11.77515625 2.90054687 -12.3784375 2.94953125 -13 3 C-8.90588383 -1.48403199 -5.77578483 -0.98079365 0 0 Z " fill="#AEAEAB" transform="translate(288,390)"/>
<path d="M0 0 C0.33 0.99 0.66 1.98 1 3 C0.34 3 -0.32 3 -1 3 C-1.33 3.66 -1.66 4.32 -2 5 C-2.99 5 -3.98 5 -5 5 C-5.33 5.66 -5.66 6.32 -6 7 C-7.32 6.67 -8.64 6.34 -10 6 C-8.71283353 4.99421411 -7.42011342 3.99553202 -6.125 3 C-5.40570313 2.443125 -4.68640625 1.88625 -3.9453125 1.3125 C-2 0 -2 0 0 0 Z " fill="#BABAB9" transform="translate(295,288)"/>
<path d="M0 0 C0.66 0.33 1.32 0.66 2 1 C-0.25283313 4.31996462 -2.80800833 6.58443874 -6 9 C-6.66 8.67 -7.32 8.34 -8 8 C-5.33333333 5.33333333 -2.66666667 2.66666667 0 0 Z " fill="#BAB9B8" transform="translate(220,193)"/>
<path d="M0 0 C0 2.33333333 0 4.66666667 0 7 C-3.21428571 10 -3.21428571 10 -6 10 C-4.6302836 6.00499382 -2.74277578 3.19990508 0 0 Z " fill="#BDBDBB" transform="translate(95,112)"/>
<path d="M0 0 C6.625 0.625 6.625 0.625 10 4 C6.7 3.34 3.4 2.68 0 2 C0 1.34 0 0.68 0 0 Z " fill="#90908F" transform="translate(165,208)"/>
<path d="M0 0 C3.63 0.33 7.26 0.66 11 1 C11 1.66 11 2.32 11 3 C11.66 3.33 12.32 3.66 13 4 C8.428721 3.45144652 4.32564205 2.58255197 0 1 C0 0.67 0 0.34 0 0 Z " fill="#A5A4A3" transform="translate(179,387)"/>
<path d="M0 0 C0.66 1.32 1.32 2.64 2 4 C1.34 4 0.68 4 0 4 C-0.495 4.66 -0.99 5.32 -1.5 6 C-1.995 6.66 -2.49 7.32 -3 8 C-3.66 8 -4.32 8 -5 8 C-3.62845496 5.04590299 -2.01136276 2.55991624 0 0 Z " fill="#C1C0BE" transform="translate(354,295)"/>
<path d="M0 0 C0.66 0 1.32 0 2 0 C3.03159626 3.09478879 2.97482862 4.52631393 2.5625 7.6875 C2.46066406 8.49574219 2.35882813 9.30398437 2.25390625 10.13671875 C2.17011719 10.75160156 2.08632813 11.36648437 2 12 C1.67 12 1.34 12 1 12 C0.01751476 7.9472484 -0.08159574 4.16138263 0 0 Z " fill="#A49EA3" transform="translate(60,233)"/>
<path d="M0 0 C1.32 0.66 2.64 1.32 4 2 C2.71349294 2.69710731 1.42059335 3.38242876 0.125 4.0625 C-0.95394531 4.63677734 -0.95394531 4.63677734 -2.0546875 5.22265625 C-2.69664062 5.47917969 -3.33859375 5.73570312 -4 6 C-4.66 5.67 -5.32 5.34 -6 5 C-4.02 3.35 -2.04 1.7 0 0 Z " fill="#B7B7B6" transform="translate(328,324)"/>
<path d="M0 0 C0.66 1.32 1.32 2.64 2 4 C0.35 5.32 -1.3 6.64 -3 8 C-3.66 7.67 -4.32 7.34 -5 7 C-3.35 4.69 -1.7 2.38 0 0 Z " fill="#B8B8B7" transform="translate(101,104)"/>
<path d="M0 0 C3.37503669 1.1858237 5.64722731 2.27573689 8 5 C4.28400809 5.20086443 3.22791555 5.1519437 0 3 C0 2.01 0 1.02 0 0 Z " fill="#C7C5C5" transform="translate(327,66)"/>
<path d="M0 0 C3.79303725 1.00193437 6.71536341 1.81024227 10 4 C7.25 4.25 7.25 4.25 4 4 C1.625 2 1.625 2 0 0 Z " fill="#ABA9A8" transform="translate(298,52)"/>
<path d="M0 0 C0.33 0.66 0.66 1.32 1 2 C-0.65 3.98 -2.3 5.96 -4 8 C-4.66 7.67 -5.32 7.34 -6 7 C-4.02 4.69 -2.04 2.38 0 0 Z " fill="#BFBFBE" transform="translate(344,308)"/>
<path d="M0 0 C0.33 0 0.66 0 1 0 C0.25 7.625 0.25 7.625 -2 11 C-2.28571429 3.57142857 -2.28571429 3.57142857 0 0 Z " fill="#959393" transform="translate(344,245)"/>
<path d="M0 0 C0.6875 1.75 0.6875 1.75 1 4 C-0.3125 6.25 -0.3125 6.25 -2 8 C-2.66 8 -3.32 8 -4 8 C-2.87548273 5.0280615 -1.77706209 2.66559313 0 0 Z " fill="#BCBBB6" transform="translate(86,125)"/>
<path d="M0 0 C0.99 0.33 1.98 0.66 3 1 C3 1.66 3 2.32 3 3 C3.66 3 4.32 3 5 3 C5 3.66 5 4.32 5 5 C5.99 5.33 6.98 5.66 8 6 C7.01 6.495 7.01 6.495 6 7 C3.875 6.0625 3.875 6.0625 2 5 C2 4.01 2 3.02 2 2 C1.34 2 0.68 2 0 2 C0 1.34 0 0.68 0 0 Z " fill="#ABAAAA" transform="translate(355,86)"/>
</svg>
